<svg xmlns="http://www.w3.org/2000/svg" width="150" height="150" viewBox="0 0 500 500"><circle cx="250" cy="250" r="250" fill="#ece2e1"/><path fill="#fa9579" d="M440.72 280.16c0 6.78-.42 13.17-1.24 19.2-1.09 7.91-2.86 15.19-5.27 21.89l-.01.01c-4.63 12.92-11.65 23.67-20.66 32.61-20.58 20.41-51.59 31.32-88.62 36.68-23 3.34-48.32 4.53-74.92 4.53-26.59 0-51.92-1.19-74.92-4.53-68.09-9.86-115.8-38.47-115.8-110.39 0-96.23 85.39-174.24 190.72-174.24 95.69 0 174.92 64.38 188.62 148.31 1.38 8.46 2.1 17.12 2.1 25.93z"/><ellipse cx="323.84" cy="217.43" fill="#ffb397" rx="52.25" ry="77.62" transform="rotate(-32.488 323.825 217.439)"/><path fill="#fa9579" d="M132.29 143.05c-10.4 7.47-19.93 15.9-28.43 25.15-5.09 5.54-9.81 11.37-14.12 17.46-28.39-20.73-36.5-43.03-31.42-66.35 1.57-7.27 4.44-14.66 8.4-22.11 33.52 4.05 56.76 17.99 65.57 45.85z"/><path fill="#fec3aa" d="M103.86 168.2c-5.09 5.54-9.81 11.37-14.12 17.46-28.39-20.73-36.5-43.03-31.42-66.35 6.82 2.38 16.16 6.65 26.9 14.34 13.17 9.41 17.4 24.04 18.64 34.55z"/><path fill="#fa9579" d="M409.88 185.11a176.35 176.35 0 00-14.73-17.98c-8.5-9.1-18.01-17.4-28.36-24.73 8.97-27.43 32.11-41.18 65.37-45.2 3.95 7.45 6.83 14.84 8.39 22.11 5.05 23.11-2.88 45.23-30.67 65.8z"/><path fill="#fec3aa" d="M409.88 185.11a176.35 176.35 0 00-14.73-17.98c1.4-10.41 5.77-24.38 18.5-33.48 10.74-7.69 20.08-11.96 26.9-14.34 5.05 23.11-2.88 45.23-30.67 65.8z"/><path fill="#dc775b" d="M297.83 78.3c.22 2.6-1.68 4.89-4.26 5.15l-.06.01c-4.12.42-8.18.99-12.07 2.1-3.9 1.02-7.64 2.49-11.04 4.51-3.39 2.03-6.53 4.5-9.17 7.54-1.33 1.5-2.56 3.12-3.68 4.83-.57.85-1.05 1.76-1.59 2.65-.18.29-.34.6-.49.91-1.82-.06-3.64-.08-5.47-.08-1.09 0-2.18.01-3.26.03-.48-.99-.99-1.95-1.53-2.9-.9-.7-1.84-1.36-2.84-1.9-2.94-1.6-6.22-2.45-9.57-2.77-6.75-.62-13.71.66-20.53 2.38l-.02.01c-2.05.52-4.13-.73-4.65-2.78-.52-2.05.72-4.13 2.78-4.65.14-.04.3-.07.44-.09 3.72-.48 7.48-.83 11.3-.88 3.8-.04 7.67.21 11.49 1.05 2.23.49 4.43 1.23 6.53 2.21-2.06-2.48-4.37-4.68-6.93-6.52-6.89-5.07-15.39-7.33-24.12-7.63a5.73 5.73 0 01-5.55-5.93 5.73 5.73 0 015.93-5.55c.19 0 .38.02.56.04l.07.01c5.12.68 10.27 1.89 15.17 3.9 4.89 2 9.52 4.8 13.48 8.3 3.88 3.41 7.08 7.45 9.62 11.76.05-4.87-.35-9.68-1.29-14.34-1.73-8.72-5.29-16.85-10.18-24.05-2.09-3.06-1.29-7.24 1.78-9.33a6.721 6.721 0 019.33 1.78c.18.27.34.55.48.83l.06.13c4.47 9.28 7.17 19.44 7.63 29.56.24 4.88-.02 9.72-.69 14.46 2.83-3.87 6.31-7.38 10.34-10.09 4.01-2.75 8.43-4.82 12.96-6.31 4.57-1.4 9.23-2.33 13.88-2.72a4.783 4.783 0 015.16 4.37z"/><path d="M249.83 294.56s-16.68-.28-16.68 4.94c0 5.21 11.66 18.89 16.68 18.89s16.68-13.95 16.68-18.89c0-4.94-16.68-4.94-16.68-4.94z"/><path d="M296.22 322.93l-.12.46c-.74 2.71-1.89 5.3-3.5 7.57-1.6 2.27-3.65 4.21-5.98 5.69-4.68 2.97-10.4 4.11-15.87 3.55-5.46-.56-10.82-2.84-14.45-6.81-1.8-1.98-3.12-4.35-3.84-6.9-.72-2.55-.84-5.26-.53-7.93l.18-1.49-1.49-.16-.02-.17-.76.08-.76-.08-.02.17-1.49.16.18 1.49c.32 2.67.2 5.38-.53 7.93-.71 2.55-2.03 4.92-3.84 6.9-3.63 3.97-9 6.25-14.45 6.81-5.47.56-11.2-.58-15.87-3.55a21.186 21.186 0 01-5.98-5.69c-1.61-2.27-2.76-4.86-3.5-7.57l-.13-.46-.91.22.11.46c.68 2.83 1.8 5.57 3.43 8.02 1.62 2.45 3.73 4.58 6.18 6.23 4.9 3.32 10.96 4.72 16.85 4.3 5.87-.43 11.81-2.68 16.09-7.07 2.11-2.17 3.73-4.86 4.64-7.78.92 2.91 2.53 5.6 4.64 7.78 4.28 4.39 10.22 6.64 16.09 7.07 5.89.43 11.95-.98 16.85-4.3 2.44-1.65 4.56-3.78 6.18-6.23 1.63-2.45 2.75-5.19 3.43-8.02l.11-.46-.92-.22z"/><path d="M148.894 311.898l.252-1.984 50.166 6.382-.253 1.984zM149.925 332.608l49.15-6.122.246 1.985-49.148 6.122zM160.009 357.12l39.957-21.823.958 1.755-39.957 21.822zM304.202 316.29l50.166-6.381.252 1.984-50.165 6.381zM304.217 328.52l.247-1.984 49.149 6.122-.247 1.985zM302.56 337.058l.958-1.755 39.957 21.822-.958 1.756z" class="st55"/><circle cx="331.04" cy="253.21" r="22.21"/><circle cx="338.81" cy="246.07" r="8.97" fill="#fff"/><circle cx="322.5" cy="263.97" r="5.01" fill="#fff"/><circle cx="168.96" cy="253.21" r="22.21"/><circle cx="161.19" cy="246.07" r="8.97" fill="#fff"/><circle cx="177.5" cy="263.97" r="5.01" fill="#fff"/><ellipse cx="348.02" cy="190.63" rx="8.26" ry="19.4" transform="rotate(-57.466 348.006 190.616)"/><ellipse cx="152" cy="205.09" rx="19.4" ry="8.26" transform="rotate(-32.531 152.02 205.094)"/><path fill-opacity=".08" d="M250 0a250 250 0 110 500"/></svg>
