<svg xmlns="http://www.w3.org/2000/svg" version="1.1" width="500" height="500" viewBox="0 0 500 500">
  <circle cx="250" cy="250" r="250" fill="#ece2e1"></circle>

  <g>
    <path fill="#9dad7f" d="M440.72,280.16c0,6.78-0.42,13.17-1.24,19.2c-1.09,7.91-2.86,15.19-5.27,21.89l-0.01,0.01c-4.63,12.92-11.65,23.67-20.66,32.61c-20.58,20.41-51.59,31.32-88.62,36.68c-23,3.34-48.32,4.53-74.92,4.53c-26.59,0-51.92-1.19-74.92-4.53c-68.09-9.86-115.8-38.47-115.8-110.39c0-96.23,85.39-174.24,190.72-174.24c95.69,0,174.92,64.38,188.62,148.31C440,262.69,440.72,271.35,440.72,280.16z"></path>
  </g>

  <g>
    <ellipse fill="#bbcb9d" transform="matrix(0.8435 -0.5371 0.5371 0.8435 -66.1077 207.9553)" cx="323.84" cy="217.43" rx="52.25" ry="77.62"></ellipse>
  </g>

  <g>
    <g>
      <path fill="#9dad7f" d="M168.93,122.41c-7.02,3.01-13.81,6.4-20.33,10.15c-12.31,7.07-23.67,15.39-33.87,24.76c-0.75,0.69-1.48,1.38-2.21,2.07c-29.45-10.66-40.36-32.36-41.09-60.11C108.42,93.89,148.17,96.28,168.93,122.41z"></path>
      <path fill="#fec3aa" d="M148.6,132.56c-12.31,7.07-23.67,15.39-33.87,24.76c-20.72-8.3-28.47-24.32-29.01-44.64C112.9,108.72,135.09,113.26,148.6,132.56z"></path>
    </g>
    <g>
      <path fill="#9dad7f" d="M331.04,122.41c7.02,3.01,13.81,6.4,20.33,10.15c12.31,7.07,23.67,15.39,33.87,24.76c0.75,0.69,1.48,1.38,2.21,2.07c29.45-10.66,40.36-32.36,41.09-60.11C391.55,93.89,351.8,96.28,331.04,122.41z"></path>
      <path fill="#fec3aa" d="M351.37,132.56c12.31,7.07,23.67,15.39,33.87,24.76c20.72-8.3,28.47-24.32,29.01-44.64C387.07,108.72,364.88,113.26,351.37,132.56z"></path>
    </g>
  </g>

  <g>
    <path fill="#eabf9f" d="M202.23,99.58c34.04-8.03,67.49-7.6,100.38,0.87c9.29,2.39,14.88,8.11,13.74,14.1c-7.53,39.66-60.18,79.18-70.09,71.59c-10.72-8.21,2.3-31.48-9.45-33.16c-10.44-1.49-25.88,15.91-37.83,11.87c-2.73-0.92-4.27-2.74-4.18-4.61c0.68-14.78-2.04-35.12-5.58-46.62C187.41,107.69,192.82,101.8,202.23,99.58z"></path>
  </g>

  <g>
    <path fill="#fff" d="M250,327.96v25.9c-8.21,0.68-16.53,1-25.04,0.44c-4.64-0.29-9.37-0.89-14.1-1.96c-4.73-1.07-9.51-2.61-14.07-5c-4.56-2.33-8.83-5.77-12.08-9.92c-3.25-4.18-5.3-9.03-6.34-13.76c-1.02-4.75-1.19-9.42-0.93-13.92c0.27-4.51,0.99-8.86,1.94-13.11c0.32-1.44,1.74-2.34,3.18-2.02c1.26,0.28,2.12,1.41,2.09,2.65v0.01c-0.17,8.24,0.68,16.55,3.65,23.25c1.5,3.32,3.52,6.1,5.98,8.17c2.5,2.04,5.34,3.52,8.59,4.39c6.49,1.79,14.03,1.68,21.61,0.63c7.6-1.02,15.32-2.97,22.97-5.27C248.3,328.19,249.15,328.03,250,327.96z"></path>
    <path fill="#fff" d="M250,327.96v25.9c8.21,0.68,16.53,1,25.04,0.44c4.64-0.29,9.37-0.89,14.1-1.96c4.73-1.07,9.51-2.61,14.07-5 c4.56-2.33,8.83-5.77,12.08-9.92c3.25-4.18,5.3-9.03,6.34-13.76c1.02-4.75,1.19-9.42,0.93-13.92c-0.27-4.51-0.99-8.86-1.94-13.11 c-0.32-1.44-1.74-2.34-3.18-2.02c-1.26,0.28-2.12,1.41-2.09,2.65v0.01c0.17,8.24-0.68,16.55-3.65,23.25 c-1.5,3.32-3.52,6.1-5.98,8.17c-2.5,2.04-5.34,3.52-8.59,4.39c-6.49,1.79-14.03,1.68-21.61,0.63c-7.6-1.02-15.32-2.97-22.97-5.27 C251.7,328.19,250.85,328.03,250,327.96z"></path>
    <path fill="#7f8f61" d="M292.83,330.65c0,1.12-0.07,2.24-0.22,3.34c0,0.01,0,0.01,0,0.02c-2.19,16.59-20.44,24.39-42.61,24.39c-22.07,0-40.25-7.69-42.58-24.16c-0.17-1.18-0.26-2.38-0.26-3.59c0-0.66,0.02-1.32,0.08-1.98c1.33-17.24,19.96-44.31,42.75-44.31c22.9,0,41.61,27.22,42.77,44.57c0,0.01,0,0.01,0,0.02C292.81,329.52,292.83,330.08,292.83,330.65z"></path>
    <circle cx="270.57" cy="335.65" r="8.09"></circle>
    <circle cx="229.43" cy="335.65" r="8.09"></circle>
  </g>

  <g>
    <g>
      <circle cx="180.11" cy="258.32" r="17.11"></circle>
      <circle fill="#fff" cx="174.66" cy="252.88" r="5.44"></circle>
    </g>
    <g>
      <circle cx="320.02" cy="258.32" r="17.11"></circle>
      <circle fill="#fff" cx="314.58" cy="252.88" r="5.44"></circle>
    </g>
  </g>

  <g>
    <path d="M139.81,202.96c-0.96,0-1.93-0.28-2.79-0.85c-2.29-1.54-2.9-4.65-1.36-6.94c10.49-15.58,25.86-20.49,45.7-14.6c2.65,0.79,4.16,3.57,3.37,6.22s-3.57,4.16-6.22,3.37c-15.59-4.63-26.57-1.27-34.56,10.59C143,202.19,141.42,202.96,139.81,202.96z"></path>
    <path d="M361.4,202.96c-1.61,0-3.19-0.77-4.15-2.21c-7.98-11.86-18.96-15.23-34.56-10.59c-2.65,0.79-5.43-0.72-6.22-3.37c-0.79-2.65,0.72-5.43,3.37-6.22c19.84-5.9,35.21-0.98,45.7,14.6c1.54,2.29,0.93,5.4-1.36,6.94C363.33,202.69,362.36,202.96,361.4,202.96z"></path>
  </g>

  <path d="M250,0a250,250 0 1,1 0,500" fill-opacity="0.08"></path>

</svg>
